<svg width="16" height="17" viewBox="0 0 16 17" fill="none" xmlns="http://www.w3.org/2000/svg">
<path fill-rule="evenodd" clip-rule="evenodd" d="M12.0659 4.3941C9.82035 2.14858 6.17965 2.14858 3.93413 4.3941C1.68862 6.63961 1.68862 10.2803 3.93414 12.5259C6.17965 14.7714 9.82035 14.7714 12.0659 12.5259C14.3114 10.2803 14.3114 6.63961 12.0659 4.3941ZM2.87347 3.33344C5.70477 0.502135 10.2952 0.502135 13.1265 3.33344C15.9578 6.16474 15.9578 10.7552 13.1265 13.5865C10.2952 16.4178 5.70478 16.4178 2.87348 13.5865C0.0421758 10.7552 0.0421741 6.16474 2.87347 3.33344ZM8 7.70996C8.41421 7.70996 8.75 8.04575 8.75 8.45996V11.46C8.75 11.8742 8.41421 12.21 8 12.21C7.58579 12.21 7.25 11.8742 7.25 11.46V8.45996C7.25 8.04575 7.58579 7.70996 8 7.70996ZM8 4.45996C7.44772 4.45996 7 4.90768 7 5.45996C7 6.01224 7.44772 6.45996 8 6.45996C8.55228 6.45996 9 6.01224 9 5.45996C9 4.90768 8.55228 4.45996 8 4.45996Z" fill="#666666"/>
</svg>
