<svg width="215" height="103" viewBox="0 0 215 103" fill="none" xmlns="http://www.w3.org/2000/svg">
<g clip-path="url(#clip0_1_337)">
<g clip-path="url(#clip1_1_337)">
<g clip-path="url(#clip2_1_337)">
<path d="M8.20056 57.6033H10.1269L18.0209 66.8571V57.6033H20.7515V71.8023H18.8252L10.9312 62.5486V71.8023H8.20056V57.6033Z" fill="#313131"/>
<path d="M32.4287 60.0312V62.9765H36.7779V65.4143H32.4287V69.3645H38.3964V71.8023H29.6881V57.6033H38.1878V60.0411H32.4188L32.4287 60.0312Z" fill="#313131"/>
<path d="M45.8634 57.5834H48.614L51.5531 66.4491L54.671 57.5834H56.5973L59.7151 66.4491L62.6543 57.5834H65.4048L60.7082 71.7824H58.7818L55.6242 62.7974L52.4865 71.7824H50.5601L45.8634 57.5834Z" fill="#313131"/>
<path d="M78.6805 70.1605L85.5617 60.0212H79.2863V57.5834H89.2059V59.2053L82.3048 69.3446H89.613V71.7824H78.6805V70.1605Z" fill="#313131"/>
<path d="M102.79 60.0113V62.9566H107.139V65.3944H102.79V69.3446H108.758V71.7824H100.049V57.5834H108.549V60.0212H102.78L102.79 60.0113Z" fill="#313131"/>
<path d="M116.919 71.7824L122.997 57.5834H124.923L131 71.7824H128.15L126.809 68.6382H121.12L119.779 71.7824H116.919ZM122.143 66.2003H125.747L123.95 62.0013L122.153 66.2003H122.143Z" fill="#313131"/>
<path d="M140.403 57.5834V69.3446H146.371V71.7824H137.662V57.5834H140.403Z" fill="#313131"/>
<path d="M152.854 71.7824L158.932 57.5834H160.857L166.935 71.7824H164.085L162.745 68.6382H157.054L155.714 71.7824H152.854ZM158.077 66.2003H161.682L159.884 62.0013L158.087 66.2003H158.077Z" fill="#313131"/>
<path d="M173.607 57.5834H175.534L183.427 66.8372V57.5834H186.159V71.7824H184.232L176.338 62.5287V71.7824H173.607V57.5834Z" fill="#313131"/>
<path d="M198.908 57.5834C201.152 57.5834 202.631 58.071 203.784 58.9267C205.521 60.2202 206.594 62.3297 206.594 64.6879C206.594 67.0461 205.521 69.1456 203.784 70.4491C202.631 71.3048 201.152 71.7924 198.908 71.7924H194.459V57.5934H198.908V57.5834ZM202.83 61.6033C202.045 60.6083 200.884 60.0212 199.206 60.0212H197.18V69.3546H199.206C200.884 69.3546 202.035 68.7675 202.83 67.7725C203.475 66.9566 203.862 65.862 203.862 64.6879C203.862 63.5138 203.475 62.4193 202.83 61.6033Z" fill="#313131"/>
<path d="M44.2945 88.2799H37.2148V94.668H34.4841V80.469H37.2148V85.8421H44.2945V80.469H47.0251V94.668H44.2945V88.2799Z" fill="#313131"/>
<path d="M61.2543 80.2601C65.6233 80.2601 68.6419 83.5238 68.6419 87.5636C68.6419 91.6034 65.6233 94.867 61.2543 94.867C56.8853 94.867 53.8667 91.6034 53.8667 87.5636C53.8667 83.5238 56.8853 80.2601 61.2543 80.2601ZM61.2543 92.4292C63.9253 92.4292 65.9113 90.2402 65.9113 87.5636C65.9113 84.8869 63.9253 82.6979 61.2543 82.6979C58.5832 82.6979 56.5973 84.8869 56.5973 87.5636C56.5973 90.2402 58.5832 92.4292 61.2543 92.4292Z" fill="#313131"/>
<path d="M76.3868 80.469H78.3132L86.2072 89.7227V80.469H88.9379V94.668H87.0115L79.1175 85.4143V94.668H76.3868V80.469Z" fill="#313131"/>
<path d="M99.9696 82.8969V85.8421H104.319V88.2799H99.9696V92.2302H105.937V94.668H97.229V80.469H105.729V82.9068H99.9597L99.9696 82.8969Z" fill="#313131"/>
<path d="M119.918 88.2401V94.668H117.188V88.2401L112.332 80.469H115.45L118.568 85.4541L121.666 80.469H124.784L119.928 88.2401H119.918Z" fill="#313131"/>
<path d="M141.138 87.5636C141.138 90.3198 143.242 92.4292 145.974 92.4292C147.81 92.4292 149.151 91.5337 149.985 90.4591L151.871 92.1407C150.62 93.7427 148.515 94.8571 145.924 94.8571C141.515 94.8571 138.416 91.6332 138.416 87.5536C138.416 83.474 141.475 80.2501 145.884 80.2501C147.989 80.2501 149.787 81.0362 151.067 82.28L149.31 84.1506C148.455 83.2949 147.264 82.6879 145.864 82.6879C143.173 82.6879 141.148 84.8571 141.148 87.5536L141.138 87.5636Z" fill="#313131"/>
<path d="M165.236 80.2601C169.605 80.2601 172.624 83.5238 172.624 87.5636C172.624 91.6034 169.605 94.867 165.236 94.867C160.867 94.867 157.849 91.6034 157.849 87.5636C157.849 83.5238 160.867 80.2601 165.236 80.2601ZM165.236 92.4292C167.908 92.4292 169.894 90.2402 169.894 87.5636C169.894 84.8869 167.908 82.6979 165.236 82.6979C162.566 82.6979 160.58 84.8869 160.58 87.5636C160.58 90.2402 162.566 92.4292 165.236 92.4292Z" fill="#313131"/>
<path d="M181.273 91.3148C182.266 91.3148 183.05 92.1009 183.05 93.0959C183.05 94.0909 182.266 94.8571 181.273 94.8571C180.28 94.8571 179.515 94.0909 179.515 93.0959C179.515 92.1009 180.28 91.3148 181.273 91.3148Z" fill="#313131"/>
<path d="M126.551 18.2402C126.412 18.3397 126.353 18.5188 126.412 18.6083C126.67 18.9367 127.524 19.0959 127.981 19.1158C128.884 19.1456 129.292 17.9616 128.656 17.9516C127.822 17.9317 126.78 18.071 126.551 18.2402Z" fill="#313131"/>
<path d="M132.33 7.4939C132.33 7.4939 132.28 7.52375 132.24 7.66305C132.002 8.49887 131.675 9.33469 131.247 10.2004C131.029 10.6382 131.069 10.8173 131.109 10.9765C131.149 11.1357 131.189 11.2949 131.019 11.6432C131.019 11.6631 130.999 11.683 130.99 11.7029C130.93 11.8322 130.85 12.0014 130.722 12.0312C130.652 12.0511 130.583 12.0113 130.513 11.9417C130.483 11.9118 130.453 11.882 130.423 11.8422C130.354 11.7526 130.284 11.6631 130.186 11.6631C130.106 11.6631 129.996 11.7327 129.877 11.872C129.51 12.28 129.659 12.5785 129.779 12.7277L129.807 12.7576C129.967 12.9466 130.046 13.0859 129.639 13.4839C129.371 13.7526 129.232 13.8422 129.103 13.8123C128.993 13.7924 128.934 13.673 128.864 13.5138C128.815 13.4043 128.726 13.3347 128.616 13.3048C128.497 13.275 128.388 13.3048 128.279 13.3844C128.08 13.5337 127.981 13.683 127.961 13.8322C127.951 13.9616 128 14.0909 128.12 14.2402L128.17 14.2999C128.249 14.3894 128.279 14.479 128.269 14.5685C128.249 14.7377 128.08 14.867 127.891 15.0063L127.773 15.0959C127.534 15.2849 127.336 15.3446 127.177 15.2949C127.057 15.2551 126.968 15.1456 126.919 14.9665C126.869 14.7874 126.829 14.1009 126.293 14.4591C125.677 14.867 125.916 15.4043 126.124 15.8223C126.273 16.1108 126.144 16.4093 125.767 16.6183L125.697 16.6581C125.489 16.7775 125.28 16.7974 125.111 16.7178C124.963 16.6481 124.903 16.4889 124.813 16.2999C124.654 15.9616 124.813 15.0859 124.009 15.4242C123.324 15.7128 123.81 16.6979 123.94 16.9665C124.019 17.1257 124.029 17.3148 123.97 17.4839C123.91 17.6531 123.781 17.7924 123.611 17.872L123.384 17.9815C123.185 18.071 122.957 18.0611 122.768 17.9516C122.113 17.5635 122.867 16.0213 121.765 16.2203C120.762 16.3994 121.09 17.6929 121.218 18.1805C121.308 18.5387 121.16 18.8969 120.821 19.0262L120.534 19.1257C120.325 19.2053 120.097 19.1655 119.918 19.0362C119.74 18.9068 119.65 18.6979 119.65 18.469C119.62 17.882 120.117 16.7377 118.915 16.9765C117.714 17.2153 118.101 18.7476 118.121 19.3844C118.121 19.7128 117.952 20.0014 117.604 20.081C116.87 20.2601 116.741 19.8422 116.781 19.4441C116.85 18.8272 117.555 17.3148 116.304 17.5237C115.052 17.7427 115.42 19.5735 115.281 20.2601C115.132 20.9864 114.487 21.1854 114.487 21.1854C114.278 21.2551 113.544 21.2949 113.782 20.28C114.02 19.265 115.251 17.9118 113.652 17.9417C111.835 17.9715 112.153 20.6879 112.024 21.4043C111.925 21.9616 111.408 22.3198 111.061 22.3596C110.713 22.3994 110.246 22.4889 110.425 21.5337C110.693 20.081 111.855 18.2004 110.555 18.2999C108.976 18.4093 108.638 19.7228 108.37 21.9019C108.251 22.8272 107.963 23.5237 107.476 23.673C107.208 23.7526 106.603 23.9218 106.543 23.0262C106.473 21.7327 108.886 18.1506 106.712 18.479C105.411 18.678 104.537 19.2352 104.388 22.5188C104.339 23.4839 104.289 24.7078 103.812 25.1456C103.336 25.5834 102.849 25.5735 102.65 25.4541C102.462 25.3347 102.273 25.0262 102.303 24.5785C102.353 23.7725 102.809 22.8471 102.968 21.9019C103.226 20.4292 103.266 18.7974 101.955 19.1456C99.1752 19.9019 99.5525 22.8571 99.5724 24.9665C99.5823 26.5486 99.4234 27.0262 99.0064 27.474C98.7582 27.7427 98.0532 28.2999 97.4474 28.1407C97.229 28.081 97.1098 27.8521 97.09 27.6232C96.9907 26.6979 97.7553 25.0461 98.0035 23.4541C98.2418 21.882 98.3411 19.6531 96.7722 20.2402C93.6245 21.4043 94.0317 24.3198 94.3991 27.6531C94.4884 28.469 94.687 30.0014 94.0515 30.6382C93.8628 30.8272 93.6544 30.9665 93.3565 31.1556C93.1678 31.275 92.8799 31.3446 92.6713 31.275C92.4628 31.2053 92.3039 31.0262 92.2543 30.8173C91.9763 29.7427 92.5522 27.8521 92.6613 25.8422C92.7508 24.1506 92.7706 21.8024 90.9038 22.877C87.2201 25.0163 88.1931 29.5934 89.2059 32.0213C89.5137 32.7476 90.2188 33.663 89.2456 34.6083C86.7831 36.9665 85.1447 39.8024 85.0851 41.265C85.0355 42.4591 85.5419 43.7825 86.4653 44.5188C86.7235 44.7178 87.4087 45.0959 87.8257 44.0014C88.5506 42.0611 89.0867 40.5685 90.3776 38.7974C90.4868 38.6581 90.5762 38.5188 90.6854 38.3795C90.7251 38.3297 90.7648 38.28 90.8045 38.2302C91.9862 36.7576 93.3068 35.3645 94.7566 34.081C98.2616 30.9566 102.571 28.2004 108.31 25.3944C110.932 24.1208 113.573 22.9765 115.807 22.0312C116.204 21.8621 116.611 21.683 117.018 21.5138L117.377 21.3645C119.154 20.6083 120.891 19.872 122.55 19.0362C123.671 18.4889 124.644 17.9715 125.528 17.4441C128.15 15.7327 130.056 14.0213 131.029 12.5088C131.079 12.4292 131.129 12.3397 131.189 12.2501C131.247 12.1506 131.287 12.081 131.327 12.0113L131.396 11.882C131.476 11.7327 131.556 11.5834 131.635 11.4043C132.162 10.2601 132.409 9.17549 132.449 7.87201C132.449 7.6531 132.399 7.5536 132.37 7.54365L132.33 7.4939Z" fill="#313131"/>
<path d="M104.924 32.6879C102.621 31.9615 100.536 32.1307 99.5427 32.8272C98.6689 33.4441 99.5228 33.7028 100.039 33.9217C102.998 35.2053 105.312 37.8919 106.732 36.9665C108.618 35.7426 108.459 33.8023 104.915 32.6879H104.924Z" fill="#313131"/>
<path d="M95.1935 36.3795C94.8062 36.6183 94.687 36.9367 94.7069 37.1457C94.7466 37.4939 95.4318 37.7825 95.8488 38.0014C99.1752 39.7427 101.171 42.4093 102.651 41.3944C104.14 40.3795 105.56 38.7079 100.406 36.5089C99.4532 36.1009 96.7921 35.3845 95.1935 36.3695V36.3795Z" fill="#313131"/>
<path d="M112.928 27.1357C111.438 26.5486 109.959 26.6382 109.273 27.0461C108.668 27.4143 109.224 27.6232 109.552 27.7924C111.438 28.7775 112.938 30.5884 113.921 30.0412C115.221 29.3247 115.211 28.0312 112.928 27.1257V27.1357Z" fill="#313131"/>
<path d="M104.835 29.4243C104.557 29.6034 104.468 29.8322 104.488 29.9715C104.517 30.2302 105.014 30.4392 105.312 30.5884C107.715 31.8521 109.303 33.683 110.376 32.9466C111.458 32.2103 112.491 30.9765 108.768 29.3944C108.082 29.1059 105.997 28.6979 104.835 29.4143V29.4243Z" fill="#313131"/>
<path d="M120.047 23.275C118.915 22.7775 118.001 22.7676 117.445 22.9765C116.949 23.1656 117.247 23.5039 117.475 23.6531C118.835 24.5387 120.037 25.7526 120.801 25.3944C121.814 24.9168 121.735 24.0213 120.037 23.275H120.047Z" fill="#313131"/>
<path d="M113.534 24.8073C113.325 24.9168 113.245 25.0859 113.255 25.1855C113.255 25.3745 113.612 25.5437 113.821 25.673C115.489 26.6879 116.552 28.081 117.357 27.6034C118.161 27.1257 118.965 26.28 116.364 24.9765C115.877 24.7377 114.407 24.3496 113.544 24.8173L113.534 24.8073Z" fill="#313131"/>
<path d="M125.3 21.086C124.536 20.877 123.99 20.4889 123.89 20.2302C123.761 19.882 124.197 19.8024 124.387 19.8322C125.101 19.9417 125.994 19.9516 126.511 20.0611C126.79 20.1307 127.087 20.2899 126.829 20.7178C126.531 21.2153 125.946 21.2551 125.3 21.076V21.086Z" fill="#313131"/>
<path d="M120.881 21.4441C120.524 21.6531 120.703 21.9317 120.981 22.1407C122.043 22.9466 123.483 23.5138 124.078 23.1058C125.101 22.3994 124.595 21.9516 122.638 21.4541C122.241 21.3546 121.358 21.1556 120.881 21.4342V21.4441Z" fill="#313131"/>
<path d="M128.805 16.4889C128.706 16.5586 128.656 16.6879 128.696 16.7476C128.864 16.9864 129.361 17.076 129.689 17.1058C130.324 17.1556 130.761 16.061 130.304 16.071C129.669 16.0909 128.964 16.3794 128.795 16.4989L128.805 16.4889Z" fill="#313131"/>
<path d="M130.662 14.5784C130.593 14.6481 130.573 14.7775 130.662 14.8372C130.89 14.9964 131.168 14.9665 131.356 14.9367C131.881 14.8571 132.06 13.8421 131.713 13.9814C131.188 14.1904 130.791 14.459 130.672 14.5784H130.662Z" fill="#313131"/>
<path d="M131.774 12.8272C131.734 12.9068 131.774 13.0163 131.853 13.0362C132.091 13.086 132.29 12.9964 132.399 12.9168C132.786 12.6481 132.746 11.6133 132.508 11.8422C132.141 12.2004 131.833 12.678 131.774 12.8173V12.8272Z" fill="#313131"/>
</g>
</g>
</g>
<defs>
<clipPath id="clip0_1_337">
<rect width="200" height="87.55" fill="white" transform="translate(7.5 7.5)"/>
</clipPath>
<clipPath id="clip1_1_337">
<rect width="200" height="87.55" fill="white" transform="translate(7.5 7.5)"/>
</clipPath>
<clipPath id="clip2_1_337">
<rect width="200" height="87.5622" fill="white" transform="translate(7.5 7.4939)"/>
</clipPath>
</defs>
</svg>
