<svg width="90" height="22" viewBox="0 0 90 22" fill="none" xmlns="http://www.w3.org/2000/svg">
<mask id="mask0_1_552" style="mask-type:luminance" maskUnits="userSpaceOnUse" x="0" y="0" width="90" height="22">
<path d="M89.9173 0H0.0839844V22H89.9173V0Z" fill="white"/>
</mask>
<g mask="url(#mask0_1_552)">
<path fill-rule="evenodd" clip-rule="evenodd" d="M7.716 0.00084648C5.51905 0.00084648 4.41973 0.0008465 3.24538 0.367373C1.94962 0.838861 0.927862 1.86479 0.458293 3.16752C0.0839844 4.35852 0.0839844 5.46064 0.0839844 7.66741V14.3258C0.0839844 16.5445 0.0839844 17.6372 0.44902 18.8257C0.918593 20.1275 1.94035 21.1535 3.2361 21.625C4.42141 22.0025 5.51905 22.0025 7.716 22.0025H14.3541C16.5536 22.0025 17.6503 22.0025 18.8331 21.625C20.1297 21.1535 21.1506 20.1275 21.6202 18.8257C21.9945 17.6347 21.9945 16.5325 21.9945 14.3258V7.67672C21.9945 5.46741 21.9945 4.36529 21.6202 3.17684C21.1506 1.87495 20.1289 0.849019 18.8331 0.377529C17.6394 0 16.5536 0 14.3431 0H7.71516L7.716 0.00084648Z" fill="#00D633"/>
<path d="M11.7777 9.95284C14.0863 10.4496 15.1418 11.41 15.1418 13.0326C15.1418 15.0668 13.492 16.5684 10.9168 16.7274L10.6655 17.9306C10.6409 18.0482 10.5376 18.1324 10.4179 18.1324H8.43671C8.27342 18.1324 8.15294 17.9794 8.19064 17.8199L8.50863 16.4743C7.2321 16.1095 6.20491 15.4001 5.6061 14.5245C5.5307 14.4143 5.55572 14.2636 5.66085 14.1815L7.04563 13.1001C7.15976 13.0109 7.32336 13.0371 7.40772 13.1549C8.14151 14.1804 9.26722 14.7877 10.6233 14.7877C11.8436 14.7877 12.7671 14.1917 12.7671 13.3307C12.7671 12.6684 12.3053 12.3703 10.7552 12.0392C8.08379 11.4762 7.02839 10.4827 7.02839 8.86001C7.02839 6.9773 8.60424 5.55507 10.9813 5.37036L11.2408 4.12761C11.2654 4.01 11.3687 3.92578 11.4883 3.92578H13.443C13.6042 3.92578 13.7242 4.07526 13.6901 4.2335L13.3897 5.62594C14.4126 5.94208 15.2454 6.50735 15.7639 7.20489C15.8442 7.31301 15.8236 7.46611 15.7196 7.55166L14.4563 8.59189C14.3465 8.68228 14.1861 8.66255 14.0969 8.55168C13.4548 7.75425 12.4439 7.30358 11.3489 7.30358C10.1286 7.30358 9.37007 7.83343 9.37007 8.5951C9.37007 9.22427 9.9637 9.55546 11.7777 9.95284Z" fill="white"/>
<path d="M35.0764 5.65465C35.0392 5.55572 34.9449 5.49023 34.8397 5.49023H32.7832C32.6778 5.49023 32.5836 5.55579 32.5464 5.65479L28.5848 16.2329C28.5226 16.399 28.6448 16.5763 28.8215 16.5763H30.3793C30.485 16.5763 30.5796 16.5102 30.6164 16.4106L31.4625 14.1212H36.1217L36.9752 16.4113C37.0123 16.5104 37.1066 16.5763 37.2121 16.5763H38.8087C38.9854 16.5763 39.1077 16.3988 39.0453 16.2328L35.0764 5.65465ZM32.1391 12.2917L33.7767 7.84483L35.4375 12.2917H32.1391Z" fill="black"/>
<path d="M49.0635 14.9058C48.9208 14.918 48.7852 14.9242 48.592 14.9242C47.9461 14.9242 47.5463 14.8393 47.5463 14.129V10.1531H48.9619C49.1015 10.1531 49.2148 10.0394 49.2148 9.89918V8.7164C49.2148 8.57615 49.1015 8.46246 48.9619 8.46246H47.5463V6.36949C47.5463 6.22924 47.433 6.11554 47.2933 6.11554H45.8309C45.6912 6.11554 45.578 6.22924 45.578 6.36949V8.46246H42.3873V8.10733C42.3873 7.24267 42.7641 7.03427 43.4638 7.03427C43.5829 7.03427 43.6712 7.03427 43.7574 7.03639C43.8998 7.03988 44.0174 6.92559 44.0174 6.78257V5.59085C44.0174 5.45535 43.9111 5.34342 43.7764 5.33715C43.582 5.32813 43.4368 5.32812 43.2178 5.32812C41.3186 5.32812 40.3883 6.27769 40.3883 7.97606V8.46246H39.534C39.3943 8.46246 39.2811 8.57615 39.2811 8.7164V9.89918C39.2811 10.0394 39.3943 10.1531 39.534 10.1531H40.3883V16.3223C40.3883 16.4625 40.5015 16.5762 40.6412 16.5762H42.1344C42.2741 16.5762 42.3873 16.4625 42.3873 16.3223V10.1531H45.578V14.4996C45.578 16.1594 46.4237 16.6689 48.0076 16.6689C48.4201 16.6689 48.8021 16.6382 49.1248 16.5895C49.2478 16.5709 49.3378 16.4635 49.3378 16.3386V15.1588C49.3378 15.0101 49.2111 14.8933 49.0635 14.9058Z" fill="black"/>
<path d="M54.0818 8.30859C51.8137 8.30859 50.1914 10.1383 50.1914 12.5237C50.1914 15.0327 51.8137 16.7466 54.1587 16.7466C55.6773 16.7466 56.9374 16.0022 57.5617 14.7063C57.6262 14.5725 57.5583 14.4118 57.4192 14.3606L56.2084 13.9149C56.0847 13.8694 55.9457 13.9265 55.8922 14.0473C55.5952 14.7167 54.9534 15.0714 54.1664 15.0714C53.0439 15.0714 52.252 14.2762 52.1059 12.9638H57.4656C57.6053 12.9638 57.7186 12.8501 57.7186 12.7098V12.3385C57.7186 10.092 56.45 8.30859 54.0818 8.30859ZM52.1905 11.5356C52.4595 10.4934 53.1592 9.95302 54.0665 9.95302C55.1737 9.95302 55.7041 10.6864 55.7195 11.5356H52.1905Z" fill="black"/>
<path d="M63.5965 8.42587C63.5105 8.42001 63.4159 8.41608 63.3077 8.41608C62.2927 8.41608 61.4778 8.90251 61.1241 9.63593V8.71639C61.1241 8.57614 61.0109 8.46245 60.8712 8.46245H59.378C59.2383 8.46245 59.125 8.57614 59.125 8.71639V16.3223C59.125 16.4625 59.2383 16.5762 59.378 16.5762H60.8712C61.0109 16.5762 61.1241 16.4625 61.1241 16.3223V12.3843C61.1241 11.1104 62.0007 10.3848 63.1462 10.3848C63.3005 10.3848 63.4281 10.3902 63.5557 10.4009C63.7036 10.4134 63.8305 10.2969 63.8305 10.1481V8.67911C63.8305 8.54619 63.7285 8.43488 63.5965 8.42587Z" fill="black"/>
<path d="M69.4271 8.30859C68.3968 8.30859 67.6279 8.71778 67.1359 9.31218V8.71695C67.1359 8.5767 67.0226 8.46301 66.8829 8.46301H65.3896C65.25 8.46301 65.1367 8.5767 65.1367 8.71695V19.0866C65.1367 19.2268 65.25 19.3405 65.3896 19.3405H66.8829C67.0226 19.3405 67.1359 19.2268 67.1359 19.0866V15.7353C67.6279 16.3374 68.3968 16.7466 69.4271 16.7466C71.6722 16.7466 72.9639 14.832 72.9639 12.5237C72.9639 10.2232 71.6722 8.30859 69.4271 8.30859ZM68.9888 15.0096C67.9047 15.0096 67.0898 14.199 67.0898 12.7631V12.2999C67.0898 10.8408 67.9047 10.0456 68.9888 10.0456C70.2651 10.0456 70.9494 11.057 70.9494 12.5237C70.9494 13.9983 70.2651 15.0096 68.9888 15.0096Z" fill="black"/>
<path d="M81.1616 15.0611C80.8499 15.047 80.723 14.8871 80.723 14.5232V11.1187C80.723 9.24269 79.5235 8.30859 77.5322 8.30859C75.8102 8.30859 74.646 9.24205 74.1815 10.4645C74.1256 10.6116 74.2126 10.7741 74.366 10.8061L75.7552 11.0952C75.8775 11.1207 76.0007 11.0527 76.0432 10.9348C76.2666 10.3163 76.6976 10.007 77.4553 10.007C78.3933 10.007 78.77 10.4625 78.77 11.1959V11.3271L76.648 11.7517C75.0564 12.0605 73.834 12.74 73.834 14.3225C73.834 15.7662 75.0103 16.7157 76.5711 16.7157C77.6245 16.7157 78.4548 16.3837 78.97 15.8125C79.2671 16.4454 79.9669 16.7219 81.179 16.6031C81.3084 16.5903 81.4073 16.4804 81.4073 16.35V15.3146C81.4073 15.1773 81.2982 15.0672 81.1616 15.0611ZM78.77 13.7049C78.77 14.6544 77.8705 15.1563 76.9248 15.1563C76.2481 15.1563 75.8099 14.8166 75.8099 14.2222C75.8099 13.5351 76.3634 13.2957 77.1093 13.1414L78.77 12.794V13.7049Z" fill="black"/>
<path d="M89.1674 8.46289H87.6761C87.5678 8.46289 87.4714 8.53225 87.4366 8.63533L85.6342 13.9751L83.7864 8.63352C83.7511 8.53137 83.6553 8.46289 83.5476 8.46289H82.009C81.8324 8.46289 81.7101 8.64014 81.7723 8.80618L84.5654 16.2678L84.2809 16.9704C84.035 17.588 83.7351 17.7501 83.143 17.7501C83.0091 17.7501 82.9067 17.7452 82.8005 17.7369C82.6535 17.7252 82.528 17.842 82.528 17.99V19.1356C82.528 19.2663 82.6268 19.3761 82.7564 19.3884C82.9078 19.4027 83.0552 19.4099 83.3276 19.4099C85.0575 19.4099 85.7803 18.5221 86.2723 17.1866L89.4041 8.80605C89.4662 8.64003 89.3439 8.46289 89.1674 8.46289Z" fill="black"/>
</g>
</svg>
